<?xml version="1.0" encoding="utf-8"?>
<!-- Generator: Adobe Illustrator 23.0.5, SVG Export Plug-In . SVG Version: 6.00 Build 0)  -->
<svg version="1.1" id="Livello_1" xmlns="http://www.w3.org/2000/svg" xmlns:xlink="http://www.w3.org/1999/xlink" x="0px" y="0px"
	 viewBox="0 0 1190.6 841.9" style="enable-background:new 0 0 1190.6 841.9;" xml:space="preserve">
<style type="text/css">
	.st0{fill:#FFF8F1;}
</style>
<g>
	<path class="st0" d="M33.2,443.9h111.3V230.1H33.2v-14.6h130.7v228.4H268v14.6H33.2V443.9z M153.8,139.6c-7.4,0-12.6-1.3-15.8-4
		c-3.2-2.7-4.6-6.1-4.6-10.1v-4.3c0-4.1,1.6-7.4,4.6-10.1c3.2-2.7,8.4-4,15.8-4s12.6,1.3,15.8,4s4.6,6.1,4.6,10.1v4.3
		c0,4.1-1.6,7.4-4.6,10.1C166.6,138.3,161.3,139.6,153.8,139.6z"/>
	<path class="st0" d="M368.7,458.5V215.5h19.4v35.9h1.6c2.5-5.3,6.2-10.5,10.8-15.5c4.6-5,10.4-9.4,17.4-13.1c7-3.7,15.3-6.8,25-9.2
		c9.6-2.4,20.7-3.6,33.2-3.6c31.3,0,55.4,7.8,72,23.4c16.6,15.5,25,38.1,25,67.6v157.8h-19.4V303.5c0-27.6-7-47.7-21-60.3
		c-14.1-12.6-34.3-18.9-61-18.9c-10.8,0-21.1,1.2-31.3,3.7c-10.1,2.5-19.1,6.2-26.8,11.3c-7.7,5-13.9,11.3-18.6,18.9
		s-6.9,16.3-6.9,26.4v173.9H368.7z"/>
	<path class="st0" d="M890,458.5H658.8v-53.7l101.3-71.7c17.5-12.8,30-23.9,37.7-33.3c7.7-9.4,11.6-19.4,11.6-29.8v-4
		c0-11.6-4-20.2-12-26c-8-5.8-18.7-8.8-32.3-8.8c-15.4,0-27.2,3.9-35.5,11.4c-8.2,7.6-14.1,16.6-17.5,27.1l-60.3-19.7
		c3.7-9.4,8.8-18.3,15.1-26.8c6.5-8.5,14.6-15.8,24.7-22.2c10-6.2,21.5-11.3,34.8-15.1c13.1-3.7,28.4-5.7,45.6-5.7
		c17.5,0,33.2,2.1,47,6.2s25.5,10,35.1,17.3c9.6,7.3,16.7,16.1,21.6,26c4.9,10.1,7.3,21,7.3,32.7c0,11.6-2.3,22-6.6,31.5
		c-4.5,9.6-10.6,18.5-18.5,26.8c-7.8,8.4-17,16.5-27.6,24.3c-10.6,7.8-21.9,15.7-33.9,23.5L735.3,409H890V458.5z"/>
	<path class="st0" d="M1048.9,463.2c-43,0-74.6-12.4-95.1-37.2c-20.5-24.8-30.7-59.5-30.7-104.3c0-44.6,10.2-79.4,30.7-104.3
		c20.5-24.8,52.1-37.2,95.1-37.2s74.6,12.4,95.1,37.2s30.7,59.5,30.7,104.3c0,44.6-10.2,79.4-30.7,104.3S1091.9,463.2,1048.9,463.2z
		 M1048.9,417c20.6,0,34.9-6.1,43-18.5c8.1-12.2,12.2-29.4,12.2-51.3v-51c0-21.9-4.1-39-12.2-51.4c-8.1-12.2-22.4-18.5-43-18.5
		c-20.6,0-34.9,6.1-43,18.5c-8.1,12.2-12.2,29.4-12.2,51.4v51c0,21.9,4.1,39,12.2,51.3C1013.9,410.9,1028.3,417,1048.9,417z
		 M1048.9,344.9c-10.8,0-18.2-1.9-22.3-5.4c-4.1-3.7-6.2-8.1-6.2-13.3v-8.6c0-5.2,2.1-9.7,6.2-13.3c4.1-3.7,11.6-5.4,22.3-5.4
		c10.8,0,18.2,1.9,22.3,5.4c4.1,3.7,6.2,8.1,6.2,13.3v8.6c0,5.2-2.1,9.7-6.2,13.3C1067.1,343.1,1059.6,344.9,1048.9,344.9z"/>
</g>
<g>
	<path class="st0" d="M806.6,636.1c-0.9-1.9-1.8-3.6-2.6-5.5c-0.9-1.9-1.8-3.8-2.5-5.8c0-0.1-0.1-0.2-0.1-0.3c0,0.1-0.1,0.2-0.1,0.3
		c-0.9,2.1-1.8,4.1-2.6,6s-1.9,3.8-2.7,5.7c-0.9,1.9-1.9,3.7-2.7,5.7l-15.6,31.9v0.1h47.7l-15.9-32.6
		C808.4,639.9,807.4,638,806.6,636.1z"/>
	<path class="st0" d="M284.7,636.1c-0.9-1.9-1.8-3.6-2.6-5.5c-0.9-1.9-1.8-3.8-2.5-5.8c0-0.1-0.1-0.2-0.1-0.3c0,0.1-0.1,0.2-0.1,0.3
		c-0.9,2.1-1.8,4.1-2.6,6s-1.9,3.8-2.7,5.7c-0.9,1.9-1.9,3.7-2.7,5.7l-15.6,31.9v0.1h47.7l-15.9-32.6
		C286.5,639.9,285.5,638,284.7,636.1z"/>
	<path class="st0" d="M458.6,673.9c-2.6-2.3-5.9-3.8-9.9-4.8c-3.9-1-7.9-1.4-11.7-1.4h-45.4v31.5h46.1c4.8,0,9.1-0.5,12.8-1.6
		c3.7-1.1,6.7-2.8,8.8-5.3c2.1-2.4,3.2-5.4,3.2-8.9C462.5,679.3,461.2,676.1,458.6,673.9z"/>
	<path class="st0" d="M446.4,650.1c3.2-1.1,5.7-2.7,7.6-4.8c1.9-2.2,2.8-4.6,2.8-7.5c0-4.8-2.2-8.3-6.5-10.3
		c-4.3-2.1-9.6-3.1-15.9-3.1h-42.9v27.3h44.6C439.8,651.7,443.2,651.1,446.4,650.1z"/>
	<path class="st0" d="M33.8,550.6v218.8h1140.9V550.6H33.8z M170.9,714.9H83.4V608.6h16.4v90.5h71V714.9z M205.2,633.4
		c-1.6,3.1-3.8,6.1-6.5,9c-2.7,3-5.7,5.5-9,7.8s-6.7,4.2-10,5.7l-7.3-8.3c4.9-2.8,8.9-5.7,11.9-8.3c3.1-2.6,4.6-5.2,4.6-7.3
		c0-1.8-0.7-3.2-1.9-4.3s-2.6-2.2-4.3-3.1c-2.1-1.3-4.3-2.7-6.4-4.3c-2.1-1.5-3.2-3.7-3.2-6.7c0-3.8,1.4-6.6,4.1-8.3
		c2.6-1.8,5.9-2.6,9.6-2.6c3.4,0,6.7,0.9,9.9,2.8c3.2,1.9,5.7,4.5,7.8,7.8c2,3.3,3,6.9,3,11C207.6,627.3,206.8,630.3,205.2,633.4z
		 M323.1,714.9L311,690.1h-63l-12.2,24.9h-17.3l51.9-106.3h19.2l51.6,106.3H323.1z M475.5,699.3c-2.5,4.1-5.8,7.2-9.9,9.5
		c-4.1,2.3-8.7,3.9-13.6,4.9c-4.9,1-10,1.4-14.9,1.4h-61.9V608.8h58c9,0,16.3,1,22.4,3.1c5.9,2,10.4,5,13.5,9s4.6,8.8,4.6,14.6
		c0,5.5-1.9,10.4-5.6,14.5c-2.7,3-6.4,5.3-11,7c3,0.9,5.8,2.1,8.5,3.6c3.9,2.2,7.2,5.3,9.8,9.3c2.5,3.7,3.8,8.4,3.8,14
		C479.2,690.1,478,695.2,475.5,699.3z M591.9,624.8h-27.7v73.9h27.7v16.2H520v-16.2h27.7v-73.9H520v-16.2h71.9V624.8z M726.4,624.4
		h-41.3v90.5h-16.4v-90.5h-40.3v-15.8h98.1V624.4z M845,714.9l-12.2-24.9h-63l-12.2,24.9h-17.3l51.9-106.3h19.2l51.6,106.3H845z
		 M979.5,714.9L950,675.8h-36.4v39.1h-16.4V608.6h62.1c6.2,0,11.9,1.4,17.2,4.3c5.2,2.8,9.3,6.8,12.5,11.7
		c3.2,4.9,4.7,10.5,4.7,16.5c0,6.5-1.8,12.2-5.2,17.4c-3.5,5.3-8,9.4-13.7,12.5c-2,1.1-4.1,2-6,2.6L1000,715L979.5,714.9z
		 M1131.3,624.4h-71.8v28.1h63.5v15.8h-63.5v30.9h71.8v15.8h-88.2V608.6h88.2V624.4z"/>
	<path class="st0" d="M973.4,650.6c2-2.8,3-6,3-9.3c0-3.2-1-6-3-8.5c-2-2.5-4.6-4.5-7.9-6c-3.3-1.5-6.9-2.3-10.7-2.3h-41.2V660h41.2
		c3.8,0,7.5-0.9,10.7-2.6C968.8,655.8,971.4,653.4,973.4,650.6z"/>
</g>
</svg>
